<svg width="16" height="14" viewBox="0 0 22 20" fill="none" xmlns="http://www.w3.org/2000/svg">
<path d="M9.30176 1.30839L10.3857 0.315356C10.8447 -0.105119 11.5869 -0.105119 12.041 0.315356L21.5332 9.00665C21.9922 9.42712 21.9922 10.107 21.5332 10.523L12.041 19.2188C11.582 19.6393 10.8398 19.6393 10.3857 19.2188L9.30176 18.2258C8.83789 17.8008 8.84766 17.1075 9.32129 16.6915L15.2051 11.5563H1.17188C0.522461 11.5563 0 11.0777 0 10.4828V9.05138C0 8.45645 0.522461 7.97783 1.17188 7.97783H15.2051L9.32129 2.84267C8.84277 2.42667 8.83301 1.73334 9.30176 1.30839Z" fill="#1F0D30"/>
</svg>
